<svg width="44" height="44" viewBox="0 0 43 43" fill="none" xmlns="http://www.w3.org/2000/svg">
  <path
    d="M3.56255 23.3377C3.21255 22.9877 3.04455 22.5793 3.05855 22.1127C3.07255 21.646 3.25513 21.2377 3.6063 20.8877C3.9563 20.5668 4.36463 20.3988 4.8313 20.3837C5.29796 20.3685 5.7063 20.5365 6.0563 20.8877L12.2688 27.1002L12.8813 27.7127L13.4938 28.3252C13.8438 28.6752 14.0118 29.0835 13.9978 29.5502C13.9838 30.0168 13.8012 30.4252 13.45 30.7752C13.1 31.096 12.6917 31.264 12.225 31.2792C11.7584 31.2943 11.35 31.1263 11 30.7752L3.56255 23.3377ZM22.1125 27.0564L36.9875 12.1814C37.3375 11.8314 37.7459 11.664 38.2125 11.6792C38.6792 11.6943 39.0875 11.8763 39.4375 12.2252C39.7584 12.5752 39.9264 12.9835 39.9415 13.4502C39.9567 13.9168 39.7887 14.3252 39.4375 14.6752L23.3375 30.7752C22.9875 31.1252 22.5792 31.3002 22.1125 31.3002C21.6459 31.3002 21.2375 31.1252 20.8875 30.7752L13.45 23.3377C13.1292 23.0168 12.9688 22.6161 12.9688 22.1354C12.9688 21.6548 13.1292 21.2388 13.45 20.8877C13.8 20.5377 14.216 20.3627 14.6978 20.3627C15.1796 20.3627 15.595 20.5377 15.9438 20.8877L22.1125 27.0564ZM29.5063 14.7189L23.3375 20.8877C23.0167 21.2085 22.616 21.3689 22.1353 21.3689C21.6546 21.3689 21.2387 21.2085 20.8875 20.8877C20.5375 20.5377 20.3625 20.1223 20.3625 19.6417C20.3625 19.161 20.5375 18.7451 20.8875 18.3939L27.0563 12.2252C27.3771 11.9043 27.7785 11.7439 28.2603 11.7439C28.7421 11.7439 29.1575 11.9043 29.5063 12.2252C29.8563 12.5752 30.0313 12.9905 30.0313 13.4712C30.0313 13.9518 29.8563 14.3678 29.5063 14.7189Z"
    fill="#0F2F84" />
</svg>  