<svg width="32" height="32" viewBox="0 0 32 32" fill="none" xmlns="http://www.w3.org/2000/svg">
<path fill-rule="evenodd" clip-rule="evenodd" d="M29.3333 16C29.3333 23.3638 23.3637 29.3334 16 29.3334C8.63616 29.3334 2.66663 23.3638 2.66663 16C2.66663 8.63622 8.63616 2.66669 16 2.66669C23.3637 2.66669 29.3333 8.63622 29.3333 16ZM11.9595 11.9596C12.35 11.569 12.9831 11.569 13.3737 11.9596L16 14.5858L18.6261 11.9596C19.0166 11.5691 19.6498 11.5691 20.0404 11.9596C20.4309 12.3501 20.4309 12.9833 20.0404 13.3738L17.4141 16L20.0404 18.6262C20.4309 19.0167 20.4309 19.6499 20.0404 20.0404C19.6498 20.431 19.0166 20.431 18.6261 20.0404L16 17.4143L13.3737 20.0404C12.9832 20.431 12.35 20.431 11.9595 20.0404C11.569 19.6499 11.569 19.0167 11.9595 18.6263L14.5857 16L11.9595 13.3738C11.5689 12.9832 11.5689 12.3501 11.9595 11.9596Z" fill="#4B74E2"/>
</svg>
