<svg width="44" height="44" viewBox="0 0 47 47" fill="none" xmlns="http://www.w3.org/2000/svg">
  <g clip-path="url(#clip0_1083_2096)">
    <path
      d="M23.5 0C36.425 0 47 10.575 47 23.5C47 36.425 36.425 47 23.5 47C10.575 47 0 36.425 0 23.5C0 10.575 10.575 0 23.5 0ZM30.362 25.4035C27.824 25.4035 25.7325 27.166 25.1685 29.516C23.8995 28.9755 22.701 29.1165 21.8315 29.4925C21.2675 27.1425 19.1525 25.4035 16.638 25.4035C13.7005 25.4035 11.327 27.777 11.327 30.7145C11.327 33.652 13.7005 36.0255 16.638 36.0255C19.458 36.0255 21.714 33.887 21.9255 31.1375C22.3955 30.832 23.594 30.221 25.0745 31.161C25.1736 32.5374 25.805 33.8211 26.8348 34.7397C27.8645 35.6584 29.2117 36.1397 30.5905 36.0816C31.9692 36.0235 33.2711 35.4306 34.22 34.4286C35.1688 33.4266 35.69 32.0944 35.673 30.7145C35.673 27.777 33.2995 25.4035 30.362 25.4035ZM16.638 26.9075C18.8 26.9075 20.445 28.623 20.445 30.7145C20.445 32.806 18.8 34.5215 16.638 34.5215C14.5465 34.5215 12.831 32.806 12.831 30.7145C12.831 28.623 14.5465 26.9075 16.638 26.9075ZM30.362 26.9075C32.4535 26.9075 34.169 28.623 34.169 30.7145C34.169 32.806 32.4535 34.5215 30.362 34.5215C28.2 34.5215 26.555 32.806 26.555 30.7145C26.555 28.623 28.2 26.9075 30.362 26.9075ZM37.2005 22.325H9.7995V23.8995H37.2005V22.325ZM28.5525 11.4915C28.3932 11.148 28.1155 10.8734 27.7702 10.718C27.4249 10.5627 27.0352 10.5369 26.6725 10.6455L23.5 11.75L20.3275 10.6455L20.2335 10.575C19.8636 10.4945 19.4771 10.55 19.1448 10.7313C18.8125 10.9125 18.5566 11.2074 18.424 11.562L14.946 20.7505H32.054L28.576 11.562L28.5525 11.4915Z"
      fill="#0F2F84" />
  </g>
  <defs>
    <clipPath id="clip0_1083_2096">
      <rect width="47" height="47" fill="white" />
    </clipPath>
  </defs>
</svg>
  