<svg width="24" height="24" viewBox="0 0 24 24" fill="none" xmlns="http://www.w3.org/2000/svg">
<g clip-path="url(#clip0_1739_7049)">
<path d="M21.75 0.562587H2.25C1.80756 0.558084 1.3814 0.729282 1.06504 1.03862C0.74867 1.34795 0.56794 1.77016 0.5625 2.21259V21.7913C0.568923 22.2331 0.750087 22.6544 1.06634 22.9629C1.3826 23.2714 1.8082 23.4421 2.25 23.4376H21.75C22.1925 23.4411 22.6183 23.2693 22.9345 22.9598C23.2507 22.6503 23.4316 22.2282 23.4375 21.7857V2.20696C23.4296 1.76583 23.2479 1.34564 22.9319 1.03772C22.6159 0.729808 22.1912 0.559058 21.75 0.562587Z" fill="#0E76A8"/>
<path d="M3.94871 9.13672H7.34434V20.0623H3.94871V9.13672ZM5.64746 3.69922C6.03692 3.69922 6.41764 3.81473 6.74144 4.03114C7.06523 4.24756 7.31757 4.55514 7.46653 4.91499C7.61548 5.27485 7.65436 5.67079 7.57824 6.05274C7.50213 6.43469 7.31444 6.78549 7.03891 7.06075C6.76339 7.33601 6.41242 7.52337 6.0304 7.59912C5.64837 7.67487 5.25246 7.63561 4.89275 7.48632C4.53304 7.33702 4.2257 7.08439 4.00959 6.76038C3.79349 6.43638 3.67834 6.05556 3.67871 5.66609C3.67921 5.14427 3.88685 4.644 4.25601 4.27519C4.62517 3.90638 5.12564 3.69922 5.64746 3.69922ZM9.47434 9.13672H12.7293V10.6367H12.7743C13.2281 9.77797 14.3343 8.87234 15.9862 8.87234C19.425 8.86484 20.0625 11.128 20.0625 14.0623V20.0623H16.6668V14.7467C16.6668 13.4811 16.6443 11.8517 14.9025 11.8517C13.1606 11.8517 12.8643 13.2317 12.8643 14.6642V20.0623H9.47434V9.13672Z" fill="white"/>
</g>
<defs>
<clipPath id="clip0_1739_7049">
<rect width="24" height="24" fill="white"/>
</clipPath>
</defs>
</svg>
