<svg width="40" height="40" viewBox="0 0 40 40" fill="none" xmlns="http://www.w3.org/2000/svg">
<path fill-rule="evenodd" clip-rule="evenodd" d="M1.12004 38.2499C-1.67996 34.8499 1.29754 30.7999 4.34504 29.0749C6.03754 28.1224 8.14504 27.4599 10.42 26.8349C9.74304 28.1247 8.99609 29.3766 8.18254 30.5849C7.51321 30.8536 6.86114 31.1633 6.23004 31.5124C4.62504 32.4174 2.48004 33.9999 3.79754 35.9874C5.08004 37.9224 7.14754 35.7949 8.12254 34.6724C9.36754 33.4024 10.7725 31.3974 12.0225 29.1974C13.345 26.8724 14.5475 24.2474 15.6975 21.4724C16.735 18.9724 17.6575 16.3974 18.3475 13.9974C19.0475 11.5974 19.52 9.37491 19.695 7.49991C19.8375 5.94241 19.77 3.64991 17.72 3.94991C15.67 4.24991 15.695 6.64991 16.1825 8.52491C16.3259 9.08325 16.5059 9.66241 16.7225 10.2624C16.5692 10.9807 16.3834 11.7391 16.165 12.5374C15.9817 13.1974 15.7817 13.8732 15.565 14.5649C14.6829 12.8432 13.9848 11.0332 13.4825 9.16491C12.6075 5.78991 12.57 1.08991 17.1075 0.114914C21.645 -0.860086 22.7825 4.28991 22.4825 7.58991C22.2325 10.2649 21.49 13.5399 20.365 16.9149C21.085 18.1074 21.87 19.3024 22.7025 20.4649C23.5775 21.6924 24.7275 22.9474 25.6775 24.0399C29.0275 23.7899 32.3275 23.9549 34.8025 24.4224C38.2025 25.0649 41.2775 27.1974 39.4775 31.2724C37.675 35.3474 33.2275 34.7474 30.2775 32.8499C27.8171 31.2595 25.6586 29.2449 23.9025 26.8999H23.895C22.0304 24.1035 20.3195 21.2075 18.77 18.2249C18.03 20.4574 16.945 23.4499 16.02 25.4499C17.2025 25.1749 18.445 24.9499 19.67 24.7624C20.1725 25.6074 20.6525 26.4324 21.145 27.2324C20.7534 27.2907 20.345 27.3557 19.92 27.4274C18.3817 27.6891 16.8734 28.0024 15.395 28.3674C15.0217 29.0841 14.66 29.7907 14.31 30.4874C13.0625 32.9574 11.9125 35.2374 10.485 36.8624C8.20254 39.4624 3.93504 41.5874 1.13504 38.1874L1.12004 38.2499ZM27.37 26.5499C28.8675 28.0799 30.27 29.2499 31.645 30.1499C33.315 31.2249 35.245 31.8524 36.145 29.9749C37.0625 28.0924 35.3675 27.1499 33.595 26.7999C31.8475 26.4674 29.77 26.4524 27.345 26.5399L27.37 26.5499Z" fill="#2D52B3"/>
</svg>
