<svg width="44" height="38" viewBox="0 0 54 47" fill="none" xmlns="http://www.w3.org/2000/svg">
  <g clip-path="url(#clip0_1083_2090)">
    <path
      d="M54 23.5C54 36.4551 43.787 47 31.2261 47C26.5891 47 22.1283 45.5538 18.313 42.9026C17.2565 42.1192 16.963 40.6731 17.7261 39.5282C18.4891 38.4436 19.8978 38.1423 21.013 38.9256C24.0065 41.0346 27.587 42.1795 31.2261 42.1795C41.2043 42.1795 49.3043 33.8038 49.3043 23.5C49.3043 13.1962 41.2043 4.82051 31.2261 4.82051C21.4826 4.82051 13.5 12.8346 13.1478 22.8372L18.6065 17.1731C19.5457 16.209 21.013 16.209 21.9522 17.1731C22.8913 18.1372 22.8913 19.6436 21.9522 20.6077L12.9717 29.8269C12.5022 30.309 11.9152 30.55 11.3283 30.55C10.6826 30.55 10.0957 30.309 9.68478 29.8269L0.704348 20.5474C-0.234783 19.5833 -0.234783 18.0769 0.704348 17.1128C1.64348 16.1487 3.11087 16.1487 4.05 17.1128L8.51087 21.7526C9.33261 9.64103 19.1935 0 31.2261 0C43.787 0 54 10.5449 54 23.5ZM31.1087 9.8218C29.8174 9.8218 28.7609 10.9064 28.7609 12.2321V23.5C28.7609 24.1628 29.0543 24.7654 29.5239 25.1872L34.5717 30.3692C35.0413 30.8513 35.6283 31.0923 36.2739 31.0923C36.8609 31.0923 37.5065 30.8513 37.9174 30.3692C38.8565 29.4051 38.7978 27.8987 37.8587 26.9346L33.4565 22.4756V12.2321C33.4565 10.9064 32.4 9.8218 31.1087 9.8218Z"
      fill="#0F2F84" />
  </g>
  <defs>
    <clipPath id="clip0_1083_2090">
      <rect width="54" height="47" fill="white" />
    </clipPath>
  </defs>
</svg>
  