<svg width="12" height="20" viewBox="0 0 12 20" fill="none" xmlns="http://www.w3.org/2000/svg">
<path d="M0.93955 0.454072C0.658343 0.735364 0.50037 1.11683 0.50037 1.51457C0.50037 1.91232 0.658343 2.29378 0.93955 2.57507L8.36455 10.0001L0.93955 17.4251C0.666313 17.708 0.515121 18.0869 0.518539 18.4802C0.521956 18.8735 0.67971 19.2497 0.957822 19.5278C1.23593 19.8059 1.61215 19.9637 2.00545 19.9671C2.39874 19.9705 2.77765 19.8193 3.06055 19.5461L11.546 11.0606C11.8273 10.7793 11.9852 10.3978 11.9852 10.0001C11.9852 9.60233 11.8273 9.22086 11.546 8.93957L3.06055 0.454072C2.77926 0.172866 2.3978 0.0148926 2.00005 0.0148926C1.6023 0.0148926 1.22084 0.172866 0.93955 0.454072Z" fill="#99CDED"/>
</svg>
