<svg aria-hidden="true" style="position: absolute; width: 0; height: 0; overflow: hidden;" version="1.1" xmlns="http://www.w3.org/2000/svg" xmlns:xlink="http://www.w3.org/1999/xlink">
<defs>
<symbol id="icon-eye" viewBox="0 0 32 32">
<path d="M2.667 16c0-2.186 0.567-2.922 1.7-4.394 2.263-2.94 6.058-6.272 11.633-6.272s9.371 3.333 11.633 6.272c1.133 1.472 1.7 2.208 1.7 4.394s-0.567 2.922-1.7 4.394c-2.263 2.94-6.058 6.272-11.633 6.272s-9.371-3.333-11.633-6.272c-1.133-1.472-1.7-2.208-1.7-4.394zM16 11c-2.761 0-5 2.239-5 5s2.239 5 5 5c2.761 0 5-2.239 5-5s-2.239-5-5-5z"></path>
<path d="M13 16c0-1.657 1.343-3 3-3s3 1.343 3 3c0 1.657-1.343 3-3 3s-3-1.343-3-3z"></path>
</symbol>
<symbol id="icon-search" viewBox="0 0 32 32">
<path d="M29.051 29.051c0.376-0.376 0.376-0.987 0-1.363l-4.888-4.888c1.821-2.133 2.921-4.9 2.921-7.925 0-6.743-5.466-12.209-12.209-12.209s-12.209 5.466-12.209 12.209c0 6.743 5.466 12.209 12.209 12.209 3.024 0 5.792-1.1 7.925-2.921l4.888 4.888c0.377 0.376 0.987 0.376 1.363 0z"></path>
</symbol>
<symbol id="icon-arrow" viewBox="0 0 32 32">
<path stroke-linejoin="round" stroke-linecap="round" stroke-miterlimit="4" stroke-width="4" d="M25.333 12l-9.333 8-9.333-8"></path>
</symbol>
<symbol id="icon-arrow-up" viewBox="0 0 32 32">
<path stroke-linejoin="round" stroke-linecap="round" stroke-miterlimit="4" stroke-width="4" d="M25.333 20l-9.333-8-9.333 8"></path>
</symbol>
<symbol id="icon-off" viewBox="0 0 32 32">
<path stroke-linejoin="miter" stroke-linecap="round" stroke-miterlimit="4" stroke-width="2.6667" d="M8.457 8.457c-1.492 1.492-2.508 3.392-2.919 5.461s-0.2 4.214 0.607 6.163 2.175 3.615 3.929 4.787c1.754 1.172 3.816 1.798 5.926 1.798s4.172-0.626 5.926-1.798c1.754-1.172 3.121-2.838 3.929-4.787s1.019-4.094 0.607-6.163c-0.411-2.069-1.427-3.97-2.919-5.461M16 10.667v-5.333"></path>
</symbol>
<symbol id="icon-check" viewBox="0 0 30 32">
<path fill="#0fbb20" style="fill: var(--color1, #0fbb20)" d="M29.155 16c0-7.855-6.368-14.222-14.222-14.222s-14.222 6.367-14.222 14.222c0 7.855 6.367 14.222 14.222 14.222s14.222-6.368 14.222-14.222zM20.665 11.69c0.417 0.417 0.417 1.092 0 1.508l-7.111 7.111c-0.417 0.417-1.092 0.417-1.508 0l-2.844-2.844c-0.417-0.417-0.417-1.092 0-1.508s1.092-0.417 1.508 0l2.090 2.090 6.357-6.357c0.417-0.417 1.092-0.417 1.508 0z"></path>
</symbol>
<svg id="icon-danger" width="16" height="17" viewBox="0 0 16 17" fill="none" xmlns="http://www.w3.org/2000/svg">
<path fill-rule="evenodd" clip-rule="evenodd" d="M3.54106 7.67433C5.48663 4.22477 6.45942 2.5 7.99992 2.5C9.54038 2.5 10.5132 4.22477 12.4588 7.67433L12.7012 8.1042C14.318 10.9707 15.1264 12.404 14.3957 13.452C13.6651 14.5 11.8575 14.5 8.24238 14.5H7.75745C4.14229 14.5 2.3347 14.5 1.60409 13.452C0.873479 12.404 1.68186 10.9707 3.29862 8.1042L3.54106 7.67433ZM7.99992 5.33333C8.27605 5.33333 8.49992 5.55719 8.49992 5.83333V9.16667C8.49992 9.4428 8.27605 9.66667 7.99992 9.66667C7.72378 9.66667 7.49992 9.4428 7.49992 9.16667V5.83333C7.49992 5.55719 7.72378 5.33333 7.99992 5.33333ZM7.99992 11.8333C8.36812 11.8333 8.66658 11.5349 8.66658 11.1667C8.66658 10.7985 8.36812 10.5 7.99992 10.5C7.63172 10.5 7.33325 10.7985 7.33325 11.1667C7.33325 11.5349 7.63172 11.8333 7.99992 11.8333Z" fill="#DD1111"/>
</svg>
<symbol id="icon-power" viewBox="0 0 32 32">
<path stroke-linejoin="miter" stroke-linecap="round" stroke-miterlimit="4" stroke-width="3.5556" d="M5.943 5.943c-1.989 1.989-3.343 4.523-3.892 7.282s-0.267 5.618 0.809 8.217c1.076 2.599 2.899 4.82 5.238 6.383s5.088 2.397 7.901 2.397c2.813 0 5.563-0.834 7.901-2.397s4.162-3.784 5.238-6.383c1.076-2.599 1.358-5.458 0.809-8.217s-1.903-5.293-3.892-7.282M16 8.889v-7.111"></path>
</symbol>
<svg id="icon-checkbox-check" width="18" height="14" viewBox="0 0 18 14" fill="none" xmlns="http://www.w3.org/2000/svg">
<path d="M1 7.36667L6.33333 12.5L17 1.5" stroke="#91C2F4" stroke-width="1.5" stroke-linecap="round" stroke-linejoin="round"/>
</svg>
<symbol id="icon-AI" viewBox="0 0 32 32">
<path d="M20.8 11.2l-6.4-2.4 6.4-2.402 2.4-6.398 2.402 6.398 6.398 2.402-6.398 2.4-2.402 6.4-2.4-6.4zM8 24l-8-3.2 8-3.2 3.2-8 3.2 8 8 3.2-8 3.2-3.2 8-3.2-8z"></path>
</symbol>
<symbol id="icon-close" viewBox="0 0 32 32">
<path d="M32 16c0-8.837-7.164-16-16-16s-16 7.163-16 16c0 8.836 7.163 16 16 16s16-7.164 16-16zM11.151 11.151c0.469-0.469 1.228-0.469 1.697 0l3.152 3.151 3.151-3.151c0.469-0.469 1.228-0.469 1.697 0s0.469 1.228 0 1.697l-3.152 3.152 3.152 3.151c0.469 0.469 0.469 1.228 0 1.697s-1.228 0.469-1.697 0l-3.151-3.151-3.152 3.151c-0.469 0.469-1.228 0.469-1.697 0s-0.469-1.228 0-1.697l3.151-3.152-3.151-3.152c-0.469-0.469-0.469-1.228 0-1.697z"></path>
</symbol>
<symbol id="icon-arrow-right" viewBox="0 0 19 32">
<path d="M1.503 0.727c-0.45 0.45-0.703 1.060-0.703 1.697s0.253 1.247 0.703 1.697l11.88 11.88-11.88 11.88c-0.437 0.453-0.679 1.059-0.674 1.688s0.258 1.231 0.703 1.676c0.445 0.445 1.047 0.697 1.676 0.703s1.236-0.236 1.688-0.674l13.577-13.577c0.45-0.45 0.703-1.060 0.703-1.697s-0.253-1.247-0.703-1.697l-13.577-13.577c-0.45-0.45-1.060-0.703-1.697-0.703s-1.247 0.253-1.697 0.703z"></path>
</symbol>
<symbol id="icon-dots" viewBox="0 0 32 32">
<path d="M5.333 20c2.209 0 4-1.791 4-4s-1.791-4-4-4c-2.209 0-4 1.791-4 4s1.791 4 4 4z"></path>
<path d="M16 20c2.209 0 4-1.791 4-4s-1.791-4-4-4c-2.209 0-4 1.791-4 4s1.791 4 4 4z"></path>
<path d="M26.667 20c2.209 0 4-1.791 4-4s-1.791-4-4-4c-2.209 0-4 1.791-4 4s1.791 4 4 4z"></path>
</symbol>
<symbol id="icon-plus" viewBox="0 0 32 32">
<path d="M25.333 17.331h-8v8h-2.667v-8h-8v-2.667h8v-8h2.667v8h8v2.667z"></path>
</symbol>
<symbol id="icon-tick" viewBox="0 0 32 32">
<path d="M13.913 0.408c0.375 0.154 0.621 0.519 0.621 0.925v1.304c0.462-0.001 0.943-0.001 1.443-0.001h0.1c2.763 0 4.941-0 6.642 0.232 1.748 0.239 3.141 0.739 4.236 1.85 1.093 1.109 1.583 2.518 1.817 4.285 0.228 1.724 0.228 3.932 0.228 6.74v0.15c0 2.808 0 5.015-0.228 6.74-0.234 1.767-0.724 3.176-1.817 4.285-1.095 1.111-2.489 1.611-4.236 1.85-1.701 0.232-3.879 0.232-6.642 0.232h-0.154c-2.763 0-4.94 0-6.642-0.232-1.748-0.239-3.141-0.739-4.236-1.85-1.093-1.109-1.583-2.518-1.817-4.285-0.228-1.724-0.228-3.932-0.228-6.74v-0.15c0-2.808-0-5.016 0.228-6.74 0.234-1.767 0.724-3.176 1.817-4.285 0.388-0.393 1.021-0.398 1.414-0.011s0.398 1.021 0.011 1.414c-0.665 0.675-1.053 1.594-1.259 3.144-0.209 1.578-0.211 3.653-0.211 6.552s0.002 4.975 0.211 6.552c0.205 1.551 0.594 2.469 1.259 3.144 0.663 0.673 1.562 1.065 3.082 1.272 1.551 0.212 3.591 0.214 6.448 0.214s4.898-0.002 6.448-0.214c1.52-0.207 2.419-0.599 3.082-1.272 0.665-0.675 1.053-1.593 1.259-3.144 0.209-1.578 0.211-3.653 0.211-6.552s-0.002-4.974-0.211-6.552c-0.205-1.55-0.594-2.469-1.259-3.144-0.663-0.673-1.562-1.064-3.082-1.272-1.551-0.212-3.591-0.214-6.448-0.214-0.514 0-1.002 0-1.466 0.001v1.435c0 0.406-0.245 0.771-0.621 0.925s-0.807 0.066-1.092-0.224l-2.334-2.369c-0.383-0.389-0.383-1.014-0-1.404l2.334-2.369c0.285-0.289 0.716-0.377 1.092-0.224z"></path>
<path d="M21.374 13.374c0.391-0.39 0.391-1.024 0-1.414s-1.024-0.391-1.414 0l-5.96 5.96-1.96-1.96c-0.391-0.391-1.024-0.391-1.414 0s-0.391 1.024 0 1.414l2.667 2.667c0.391 0.391 1.024 0.391 1.414 0l6.667-6.667z"></path>
</symbol>
<symbol id="icon-calendar" viewBox="0 0 32 32">
<path d="M6.4 14.4c0-0.424 0.169-0.831 0.469-1.131s0.707-0.469 1.131-0.469c0.424 0 0.831 0.169 1.131 0.469s0.469 0.707 0.469 1.131c0 0.424-0.169 0.831-0.469 1.131s-0.707 0.469-1.131 0.469c-0.424 0-0.831-0.169-1.131-0.469s-0.469-0.707-0.469-1.131zM8 19.2c-0.424 0-0.831 0.169-1.131 0.469s-0.469 0.707-0.469 1.131c0 0.424 0.169 0.831 0.469 1.131s0.707 0.469 1.131 0.469c0.424 0 0.831-0.169 1.131-0.469s0.469-0.707 0.469-1.131c0-0.424-0.169-0.831-0.469-1.131s-0.707-0.469-1.131-0.469zM12.8 14.4c0-0.424 0.169-0.831 0.469-1.131s0.707-0.469 1.131-0.469c0.424 0 0.831 0.169 1.131 0.469s0.469 0.707 0.469 1.131c0 0.424-0.169 0.831-0.469 1.131s-0.707 0.469-1.131 0.469c-0.424 0-0.831-0.169-1.131-0.469s-0.469-0.707-0.469-1.131zM14.4 19.2c-0.424 0-0.831 0.169-1.131 0.469s-0.469 0.707-0.469 1.131c0 0.424 0.169 0.831 0.469 1.131s0.707 0.469 1.131 0.469c0.424 0 0.831-0.169 1.131-0.469s0.469-0.707 0.469-1.131c0-0.424-0.169-0.831-0.469-1.131s-0.707-0.469-1.131-0.469zM19.2 14.4c0-0.424 0.169-0.831 0.469-1.131s0.707-0.469 1.131-0.469c0.424 0 0.831 0.169 1.131 0.469s0.469 0.707 0.469 1.131c0 0.424-0.169 0.831-0.469 1.131s-0.707 0.469-1.131 0.469c-0.424 0-0.831-0.169-1.131-0.469s-0.469-0.707-0.469-1.131zM0 8c0-2.122 0.843-4.157 2.343-5.657s3.535-2.343 5.657-2.343h16c2.122 0 4.157 0.843 5.657 2.343s2.343 3.535 2.343 5.657v16c0 2.122-0.843 4.157-2.343 5.657s-3.535 2.343-5.657 2.343h-16c-2.122 0-4.157-0.843-5.657-2.343s-2.343-3.535-2.343-5.657v-16zM8 3.2c-0.993-0.001-1.962 0.307-2.773 0.88s-1.424 1.384-1.755 2.32h25.056c-0.331-0.936-0.944-1.747-1.755-2.32s-1.78-0.881-2.773-0.88h-16zM28.8 9.6h-25.6v14.4c0 1.273 0.506 2.494 1.406 3.394s2.121 1.406 3.394 1.406h16c1.273 0 2.494-0.506 3.394-1.406s1.406-2.121 1.406-3.394v-14.4z"></path>
</symbol>
<symbol id="icon-linkedin" viewBox="0 0 32 32">
<path fill="#408cbb" style="fill: var(--color1, #408cbb)" d="M29 0.75h-26c-0.59-0.006-1.158 0.222-1.58 0.635s-0.663 0.975-0.67 1.565v26.105c0.009 0.589 0.25 1.151 0.672 1.562s0.989 0.639 1.578 0.633h26c0.59 0.005 1.158-0.224 1.579-0.637s0.663-0.975 0.671-1.565v-26.105c-0.011-0.588-0.253-1.148-0.674-1.559s-0.988-0.638-1.576-0.633z"></path>
<path fill="#fff" style="fill: var(--color2, #fff)" d="M5.265 12.183h4.527v14.568h-4.527v-14.568zM7.53 4.933c0.519 0 1.027 0.154 1.459 0.443s0.768 0.699 0.967 1.178c0.199 0.48 0.25 1.008 0.149 1.517s-0.352 0.977-0.719 1.344c-0.367 0.367-0.835 0.617-1.345 0.718s-1.037 0.049-1.517-0.15c-0.48-0.199-0.889-0.536-1.178-0.968s-0.442-0.94-0.441-1.459c0.001-0.696 0.277-1.363 0.77-1.855s1.16-0.768 1.855-0.768zM12.633 12.183h4.34v2h0.060c0.605-1.145 2.080-2.353 4.282-2.353 4.585-0.010 5.435 3.008 5.435 6.92v8h-4.527v-7.088c0-1.688-0.030-3.86-2.353-3.86s-2.718 1.84-2.718 3.75v7.198h-4.52v-14.568z"></path>
</symbol>
<symbol id="icon-upload" viewBox="0 0 32 32">
<path d="M25.802 10.156l-5.278-4.751c-1.504-1.353-2.256-2.030-3.178-2.384l-0.012 3.646c0 3.143 0 4.714 0.976 5.69s2.548 0.976 5.69 0.976h4.773c-0.483-0.939-1.349-1.718-2.971-3.178z"></path>
<path d="M13.333 29.333c-5.028 0-7.542 0-9.105-1.562s-1.562-4.076-1.562-9.105v-5.333c0-5.028 0-7.542 1.562-9.105s4.090-1.562 9.144-1.562c0.808 0 1.455 0 2 0.022-0.018 0.107-0.027 0.215-0.028 0.325l-0.012 3.779c-0 1.463-0 2.756 0.14 3.798 0.152 1.13 0.501 2.259 1.422 3.18s2.051 1.27 3.18 1.422c1.042 0.14 2.335 0.14 3.798 0.14h5.403c0.057 0.712 0.057 1.587 0.057 2.75v0.583c0 5.028 0 7.543-1.562 9.104s-4.076 1.562-9.104 1.562h-5.333zM12.017 17.27c-0.385-0.361-0.983-0.361-1.368 0l-2.667 2.5c-0.403 0.378-0.423 1.011-0.046 1.414s1.011 0.423 1.413 0.046l0.983-0.921v4.358c0 0.552 0.448 1 1 1s1-0.448 1-1v-4.358l0.983 0.921c0.403 0.378 1.036 0.357 1.414-0.046s0.357-1.036-0.046-1.414l-2.667-2.5z"></path>
</symbol>
<symbol id="icon-files" viewBox="0 0 32 32">
<path d="M3.673 19.622l0.69 2.576c0.806 3.007 1.208 4.51 2.122 5.485 0.721 0.77 1.654 1.309 2.682 1.548 1.301 0.303 2.804-0.099 5.811-0.905s4.51-1.208 5.485-2.122c0.081-0.076 0.159-0.154 0.235-0.234-0.446-0.037-0.895-0.109-1.352-0.2-0.928-0.185-2.031-0.48-3.335-0.83l-0.175-0.047c-1.419-0.38-2.605-0.699-3.552-1.041-0.996-0.36-1.9-0.803-2.668-1.522-1.059-0.991-1.799-2.275-2.129-3.687-0.239-1.025-0.171-2.030 0.016-3.072 0.179-0.999 0.499-2.195 0.883-3.629l0.738-2.753c-2.561 0.69-3.909 1.098-4.807 1.94-0.77 0.721-1.309 1.654-1.548 2.682-0.303 1.301 0.099 2.804 0.905 5.811z"></path>
<path d="M27.772 14.287c0.806-3.007 1.208-4.51 0.905-5.811-0.239-1.027-0.778-1.96-1.548-2.682-0.975-0.913-2.478-1.316-5.485-2.122s-4.51-1.208-5.811-0.905c-1.027 0.24-1.961 0.778-2.682 1.548-0.782 0.835-1.19 2.057-1.796 4.278-0.102 0.373-0.209 0.775-0.325 1.207l-0.69 2.576c-0.806 3.007-1.208 4.51-0.905 5.811 0.24 1.027 0.778 1.961 1.548 2.682 0.975 0.913 2.478 1.316 5.485 2.122 2.71 0.726 4.199 1.125 5.419 0.975 0.134-0.016 0.264-0.040 0.392-0.070 1.027-0.239 1.96-0.778 2.682-1.548 0.913-0.975 1.316-2.479 2.122-5.485l0.69-2.576zM14.736 13.074c0.143-0.533 0.691-0.85 1.225-0.707l6.44 1.726c0.533 0.143 0.85 0.691 0.707 1.225s-0.691 0.85-1.225 0.707l-6.44-1.725c-0.533-0.143-0.85-0.691-0.707-1.225zM13.701 16.938c0.143-0.533 0.691-0.85 1.225-0.707l3.864 1.035c0.533 0.143 0.85 0.691 0.707 1.225s-0.691 0.85-1.225 0.707l-3.864-1.035c-0.533-0.143-0.85-0.691-0.707-1.225z"></path>
</symbol>
<symbol id="icon-money" viewBox="0 0 32 32">
<path d="M27.214 13.148c1.079 0.069 2.034 0.92 2.114 2.109 0.005 0.078 0.005 0.162 0.005 0.24v5.008c0 0.078 0 0.162-0.005 0.24-0.080 1.189-1.035 2.040-2.114 2.109-0.073 0.005-0.152 0.005-0.234 0.005h-3.244c-2.657 0-4.931-2.108-4.931-4.857s2.274-4.857 4.931-4.857h3.244c0.082-0 0.161-0 0.234 0.005zM23.45 19.295c0.684 0 1.239-0.58 1.239-1.295s-0.555-1.295-1.239-1.295c-0.684 0-1.239 0.58-1.239 1.295s0.555 1.295 1.239 1.295z"></path>
<path d="M26.979 24.8c0.192-0.005 0.337 0.174 0.285 0.36-0.258 0.923-0.668 1.709-1.325 2.371-0.962 0.969-2.181 1.399-3.688 1.604-1.464 0.198-3.335 0.198-5.697 0.198h-2.715c-2.362 0-4.233 0-5.697-0.198-1.507-0.204-2.726-0.634-3.688-1.604s-1.389-2.198-1.591-3.717c-0.197-1.476-0.197-3.361-0.197-5.741v-0.146c-0-2.38-0-4.266 0.197-5.741 0.203-1.519 0.629-2.748 1.591-3.717s2.181-1.399 3.688-1.604c1.464-0.198 3.335-0.198 5.697-0.198h2.715c2.362-0 4.233-0 5.697 0.198 1.507 0.204 2.726 0.634 3.688 1.604 0.657 0.662 1.067 1.449 1.325 2.371 0.052 0.186-0.093 0.365-0.285 0.36l-3.243 0c-3.646 0-6.859 2.903-6.859 6.8s3.213 6.8 6.859 6.8h3.243zM7.486 11.847c-0.532 0-0.964 0.435-0.964 0.971s0.432 0.971 0.964 0.971h5.141c0.532 0 0.964-0.435 0.964-0.971s-0.432-0.971-0.964-0.971h-5.141z"></path>
<path d="M10.369 5.366l2.612-1.924c1.403-1.033 3.303-1.033 4.705 0l2.625 1.934c-1.098-0.043-2.324-0.043-3.668-0.043h-2.894c-1.228-0-2.358-0-3.381 0.033z"></path>
</symbol>
<symbol id="icon-edit" viewBox="0 0 32 32">
<path d="M22.025 22.002c0.233-0.182 0.445-0.394 0.868-0.817l5.277-5.277c0.127-0.127 0.069-0.347-0.101-0.406-0.623-0.216-1.433-0.622-2.191-1.38s-1.164-1.568-1.38-2.191c-0.059-0.17-0.279-0.229-0.406-0.101l-5.277 5.276c-0.423 0.423-0.635 0.635-0.817 0.868-0.215 0.275-0.399 0.573-0.549 0.888-0.127 0.267-0.222 0.551-0.411 1.119l-0.998 2.994c-0.093 0.279-0.020 0.587 0.188 0.796s0.516 0.281 0.796 0.188l2.994-0.998c0.568-0.189 0.852-0.284 1.119-0.411 0.315-0.15 0.613-0.334 0.888-0.549z"></path>
<path d="M29.822 14.256c1.126-1.126 1.126-2.952 0-4.078s-2.952-1.126-4.078 0l-0.17 0.17c-0.164 0.164-0.238 0.392-0.197 0.62 0.026 0.143 0.073 0.353 0.16 0.603 0.173 0.5 0.501 1.157 1.118 1.774s1.274 0.945 1.774 1.118c0.25 0.087 0.46 0.134 0.603 0.16 0.228 0.041 0.457-0.033 0.62-0.197l0.17-0.17z"></path>
<path d="M5.562 4.229c-1.562 1.562-1.562 4.076-1.562 9.105v5.333c0 5.028 0 7.543 1.562 9.105s4.076 1.562 9.105 1.562h2.667c5.028 0 7.542 0 9.104-1.562 1.537-1.537 1.562-3.996 1.562-8.864l-3.758 3.758c-0.36 0.36-0.654 0.655-0.987 0.914-0.39 0.304-0.812 0.565-1.258 0.777-0.381 0.181-0.776 0.313-1.259 0.474l-3.082 1.028c-0.998 0.333-2.099 0.073-2.843-0.671s-1.004-1.844-0.671-2.842l1.027-3.082c0.161-0.483 0.292-0.878 0.474-1.259 0.213-0.446 0.473-0.868 0.777-1.258 0.259-0.333 0.554-0.627 0.914-0.987l6.994-6.994c0.954-0.954 2.204-1.431 3.454-1.43-0.202-1.374-0.592-2.35-1.346-3.105-1.562-1.562-4.076-1.562-9.104-1.562h-2.667c-5.028 0-7.542 0-9.105 1.562zM9.667 12c0-0.552 0.448-1 1-1h8.667c0.552 0 1 0.448 1 1s-0.448 1-1 1h-8.667c-0.552 0-1-0.448-1-1zM9.667 17.333c0-0.552 0.448-1 1-1h3.333c0.552 0 1 0.448 1 1s-0.448 1-1 1h-3.333c-0.552 0-1-0.448-1-1zM9.667 22.667c0-0.552 0.448-1 1-1h2c0.552 0 1 0.448 1 1s-0.448 1-1 1h-2c-0.552 0-1-0.448-1-1z"></path>
</symbol>
<symbol id="icon-send" viewBox="0 0 37 32">
<path d="M2.972 3.861c-2.083 2.083-2.083 5.435-2.083 12.139s0 10.057 2.083 12.139c2.083 2.083 5.435 2.083 12.139 2.083h7.111c6.704 0 10.057 0 12.139-2.083s2.083-5.435 2.083-12.139c0-6.704 0-10.057-2.083-12.139s-5.435-2.083-12.139-2.083h-7.111c-6.704 0-10.057 0-12.139 2.083zM30.358 8.036c0.471 0.566 0.395 1.406-0.171 1.878l-3.905 3.254c-1.576 1.313-2.853 2.377-3.98 3.102-1.174 0.755-2.318 1.232-3.635 1.232s-2.461-0.477-3.635-1.232c-1.127-0.725-2.404-1.789-3.98-3.102l-3.905-3.254c-0.566-0.471-0.642-1.312-0.171-1.878s1.312-0.642 1.878-0.171l3.838 3.198c1.659 1.382 2.81 2.339 3.782 2.964 0.941 0.605 1.579 0.809 2.193 0.809s1.252-0.203 2.193-0.809c0.972-0.625 2.124-1.582 3.782-2.964l3.838-3.198c0.566-0.471 1.406-0.395 1.878 0.171z"></path>
</symbol>
<symbol id="icon-uploading-filed" viewBox="0 0 32 32">
<path stroke-linejoin="round" stroke-linecap="butt" stroke-miterlimit="4" stroke-width="2.5946" d="M29.968 19.535v10.368h-28.668v-10.365M15.568 23.489l-0.057-21.008M24.036 10.355l-8.523-8.523-8.526 8.521"></path>
</symbol>
<symbol id="icon-pdf" viewBox="0 0 32 32">
<path d="M0.896 30.6c-2.24-2.72 0.142-5.96 2.58-7.34 1.354-0.762 3.040-1.292 4.86-1.792-0.542 1.032-1.139 2.033-1.79 3-0.535 0.215-1.057 0.463-1.562 0.742-1.284 0.724-3 1.99-1.946 3.58 1.026 1.548 2.68-0.154 3.46-1.052 0.996-1.016 2.12-2.62 3.12-4.38 1.058-1.86 2.020-3.96 2.94-6.18 0.83-2 1.568-4.060 2.12-5.98 0.56-1.92 0.938-3.698 1.078-5.198 0.114-1.246 0.060-3.080-1.58-2.84s-1.62 2.16-1.23 3.66c0.115 0.447 0.259 0.91 0.432 1.39-0.123 0.575-0.271 1.181-0.446 1.82-0.147 0.528-0.307 1.069-0.48 1.622-0.706-1.377-1.264-2.825-1.666-4.32-0.7-2.7-0.73-6.46 2.9-7.24s4.54 3.34 4.3 5.98c-0.2 2.14-0.794 4.76-1.694 7.46 0.576 0.954 1.204 1.91 1.87 2.84 0.7 0.982 1.62 1.986 2.38 2.86 2.68-0.2 5.32-0.068 7.3 0.306 2.72 0.514 5.18 2.22 3.74 5.48-1.442 3.26-5 2.78-7.36 1.262-1.968-1.272-3.695-2.884-5.1-4.76h-0.006c-1.492-2.237-2.86-4.554-4.1-6.94-0.592 1.786-1.46 4.18-2.2 5.78 0.946-0.22 1.94-0.4 2.92-0.55 0.402 0.676 0.786 1.336 1.18 1.976-0.313 0.047-0.64 0.099-0.98 0.156-1.231 0.209-2.437 0.46-3.62 0.752-0.299 0.573-0.588 1.139-0.868 1.696-0.998 1.976-1.918 3.8-3.060 5.1-1.826 2.080-5.24 3.78-7.48 1.060l-0.012 0.050zM21.896 21.24c1.198 1.224 2.32 2.16 3.42 2.88 1.336 0.86 2.88 1.362 3.6-0.14 0.734-1.506-0.622-2.26-2.040-2.54-1.398-0.266-3.060-0.278-5-0.208l0.020 0.008z"></path>
</symbol>
<svg id="icon-close-without-circle" width="14" height="14" viewBox="0 0 14 14" fill="none" xmlns="http://www.w3.org/2000/svg">
<path d="M1.4 14L0 12.6L5.6 7L0 1.4L1.4 0L7 5.6L12.6 0L14 1.4L8.4 7L14 12.6L12.6 14L7 8.4L1.4 14Z" fill="#4B74E2"/>
</svg>
<svg id="icon-double-check" width="16" height="10" viewBox="0 0 16 10" fill="none" xmlns="http://www.w3.org/2000/svg">
<path d="M14.5 1L7.5 9L4.5 6M4.5 9L1.5 6M11.5 1L7.25 5.875" stroke="#2772A0" stroke-width="1.5" stroke-linecap="round" stroke-linejoin="round"/>
</svg>
</defs>
</svg>

