<svg aria-hidden="true" style="position: absolute; width: 0; height: 0; overflow: hidden;" version="1.1" xmlns="http://www.w3.org/2000/svg" xmlns:xlink="http://www.w3.org/1999/xlink">
<defs>
<symbol id="icon-eye" viewBox="0 0 32 32">
<path d="M2.667 16c0-2.186 0.567-2.922 1.7-4.394 2.263-2.94 6.058-6.272 11.633-6.272s9.371 3.333 11.633 6.272c1.133 1.472 1.7 2.208 1.7 4.394s-0.567 2.922-1.7 4.394c-2.263 2.94-6.058 6.272-11.633 6.272s-9.371-3.333-11.633-6.272c-1.133-1.472-1.7-2.208-1.7-4.394zM16 11c-2.761 0-5 2.239-5 5s2.239 5 5 5c2.761 0 5-2.239 5-5s-2.239-5-5-5z"></path>
<path d="M13 16c0-1.657 1.343-3 3-3s3 1.343 3 3c0 1.657-1.343 3-3 3s-3-1.343-3-3z"></path>
</symbol>
<symbol id="icon-search" viewBox="0 0 32 32">
<path d="M29.051 29.051c0.376-0.376 0.376-0.987 0-1.363l-4.888-4.888c1.821-2.133 2.921-4.9 2.921-7.925 0-6.743-5.466-12.209-12.209-12.209s-12.209 5.466-12.209 12.209c0 6.743 5.466 12.209 12.209 12.209 3.024 0 5.792-1.1 7.925-2.921l4.888 4.888c0.377 0.376 0.987 0.376 1.363 0z"></path>
</symbol>
<symbol id="icon-arrow" viewBox="0 0 32 32">
<path stroke-linejoin="round" stroke-linecap="round" stroke-miterlimit="4" stroke-width="4" d="M25.333 12l-9.333 8-9.333-8"></path>
</symbol>
<symbol id="icon-arrow-up" viewBox="0 0 32 32">
<path stroke-linejoin="round" stroke-linecap="round" stroke-miterlimit="4" stroke-width="4" d="M25.333 20l-9.333-8-9.333 8"></path>
</symbol>
<symbol id="icon-off" viewBox="0 0 32 32">
<path stroke-linejoin="miter" stroke-linecap="round" stroke-miterlimit="4" stroke-width="2.6667" d="M8.457 8.457c-1.492 1.492-2.508 3.392-2.919 5.461s-0.2 4.214 0.607 6.163 2.175 3.615 3.929 4.787c1.754 1.172 3.816 1.798 5.926 1.798s4.172-0.626 5.926-1.798c1.754-1.172 3.121-2.838 3.929-4.787s1.019-4.094 0.607-6.163c-0.411-2.069-1.427-3.97-2.919-5.461M16 10.667v-5.333"></path>
</symbol>
<symbol id="icon-check" viewBox="0 0 30 32">
<path fill="#0fbb20" style="fill: var(--color1, #0fbb20)" d="M29.155 16c0-7.855-6.368-14.222-14.222-14.222s-14.222 6.367-14.222 14.222c0 7.855 6.367 14.222 14.222 14.222s14.222-6.368 14.222-14.222zM20.665 11.69c0.417 0.417 0.417 1.092 0 1.508l-7.111 7.111c-0.417 0.417-1.092 0.417-1.508 0l-2.844-2.844c-0.417-0.417-0.417-1.092 0-1.508s1.092-0.417 1.508 0l2.090 2.090 6.357-6.357c0.417-0.417 1.092-0.417 1.508 0z"></path>
</symbol>
<svg id="icon-danger" width="16" height="17" viewBox="0 0 16 17" fill="none" xmlns="http://www.w3.org/2000/svg">
<path fill-rule="evenodd" clip-rule="evenodd" d="M3.54106 7.67433C5.48663 4.22477 6.45942 2.5 7.99992 2.5C9.54038 2.5 10.5132 4.22477 12.4588 7.67433L12.7012 8.1042C14.318 10.9707 15.1264 12.404 14.3957 13.452C13.6651 14.5 11.8575 14.5 8.24238 14.5H7.75745C4.14229 14.5 2.3347 14.5 1.60409 13.452C0.873479 12.404 1.68186 10.9707 3.29862 8.1042L3.54106 7.67433ZM7.99992 5.33333C8.27605 5.33333 8.49992 5.55719 8.49992 5.83333V9.16667C8.49992 9.4428 8.27605 9.66667 7.99992 9.66667C7.72378 9.66667 7.49992 9.4428 7.49992 9.16667V5.83333C7.49992 5.55719 7.72378 5.33333 7.99992 5.33333ZM7.99992 11.8333C8.36812 11.8333 8.66658 11.5349 8.66658 11.1667C8.66658 10.7985 8.36812 10.5 7.99992 10.5C7.63172 10.5 7.33325 10.7985 7.33325 11.1667C7.33325 11.5349 7.63172 11.8333 7.99992 11.8333Z" fill="#DD1111"/>
</svg>
<symbol id="icon-power" viewBox="0 0 32 32">
<path stroke-linejoin="miter" stroke-linecap="round" stroke-miterlimit="4" stroke-width="3.5556" d="M5.943 5.943c-1.989 1.989-3.343 4.523-3.892 7.282s-0.267 5.618 0.809 8.217c1.076 2.599 2.899 4.82 5.238 6.383s5.088 2.397 7.901 2.397c2.813 0 5.563-0.834 7.901-2.397s4.162-3.784 5.238-6.383c1.076-2.599 1.358-5.458 0.809-8.217s-1.903-5.293-3.892-7.282M16 8.889v-7.111"></path>
</symbol>
<svg id="icon-checkbox-check" width="18" height="14" viewBox="0 0 18 14" fill="none" xmlns="http://www.w3.org/2000/svg">
<path d="M1 7.36667L6.33333 12.5L17 1.5" stroke="#91C2F4" stroke-width="1.5" stroke-linecap="round" stroke-linejoin="round"/>
</svg>
<svg id="icon-AI" width="20" height="20" viewBox="0 0 20 20" fill="none" xmlns="http://www.w3.org/2000/svg">
<path d="M13 6.99998L9 5.49998L13 3.99848L14.5 0L16.0014 3.99848L20 5.49998L16.0014 6.99998L14.5 11L13 6.99998ZM4.99997 15L0 13L4.99997 11L6.99998 6L9 11L14 13L9 15L6.99998 20L4.99997 15Z" fill="#4B74E2"/>
</svg>
<symbol id="icon-close" viewBox="0 0 32 32">
<path d="M32 16c0-8.837-7.164-16-16-16s-16 7.163-16 16c0 8.836 7.163 16 16 16s16-7.164 16-16zM11.151 11.151c0.469-0.469 1.228-0.469 1.697 0l3.152 3.151 3.151-3.151c0.469-0.469 1.228-0.469 1.697 0s0.469 1.228 0 1.697l-3.152 3.152 3.152 3.151c0.469 0.469 0.469 1.228 0 1.697s-1.228 0.469-1.697 0l-3.151-3.151-3.152 3.151c-0.469 0.469-1.228 0.469-1.697 0s-0.469-1.228 0-1.697l3.151-3.152-3.151-3.152c-0.469-0.469-0.469-1.228 0-1.697z"></path>
</symbol>
<symbol id="icon-arrow-right" viewBox="0 0 19 32">
<path d="M1.503 0.727c-0.45 0.45-0.703 1.060-0.703 1.697s0.253 1.247 0.703 1.697l11.88 11.88-11.88 11.88c-0.437 0.453-0.679 1.059-0.674 1.688s0.258 1.231 0.703 1.676c0.445 0.445 1.047 0.697 1.676 0.703s1.236-0.236 1.688-0.674l13.577-13.577c0.45-0.45 0.703-1.060 0.703-1.697s-0.253-1.247-0.703-1.697l-13.577-13.577c-0.45-0.45-1.060-0.703-1.697-0.703s-1.247 0.253-1.697 0.703z"></path>
</symbol>
<symbol id="icon-dots" viewBox="0 0 32 32">
<path d="M5.333 20c2.209 0 4-1.791 4-4s-1.791-4-4-4c-2.209 0-4 1.791-4 4s1.791 4 4 4z"></path>
<path d="M16 20c2.209 0 4-1.791 4-4s-1.791-4-4-4c-2.209 0-4 1.791-4 4s1.791 4 4 4z"></path>
<path d="M26.667 20c2.209 0 4-1.791 4-4s-1.791-4-4-4c-2.209 0-4 1.791-4 4s1.791 4 4 4z"></path>
</symbol>
<symbol id="icon-plus" viewBox="0 0 32 32">
<path d="M25.333 17.331h-8v8h-2.667v-8h-8v-2.667h8v-8h2.667v8h8v2.667z"></path>
</symbol>
<symbol id="icon-tick" viewBox="0 0 32 32">
<path d="M13.913 0.408c0.375 0.154 0.621 0.519 0.621 0.925v1.304c0.462-0.001 0.943-0.001 1.443-0.001h0.1c2.763 0 4.941-0 6.642 0.232 1.748 0.239 3.141 0.739 4.236 1.85 1.093 1.109 1.583 2.518 1.817 4.285 0.228 1.724 0.228 3.932 0.228 6.74v0.15c0 2.808 0 5.015-0.228 6.74-0.234 1.767-0.724 3.176-1.817 4.285-1.095 1.111-2.489 1.611-4.236 1.85-1.701 0.232-3.879 0.232-6.642 0.232h-0.154c-2.763 0-4.94 0-6.642-0.232-1.748-0.239-3.141-0.739-4.236-1.85-1.093-1.109-1.583-2.518-1.817-4.285-0.228-1.724-0.228-3.932-0.228-6.74v-0.15c0-2.808-0-5.016 0.228-6.74 0.234-1.767 0.724-3.176 1.817-4.285 0.388-0.393 1.021-0.398 1.414-0.011s0.398 1.021 0.011 1.414c-0.665 0.675-1.053 1.594-1.259 3.144-0.209 1.578-0.211 3.653-0.211 6.552s0.002 4.975 0.211 6.552c0.205 1.551 0.594 2.469 1.259 3.144 0.663 0.673 1.562 1.065 3.082 1.272 1.551 0.212 3.591 0.214 6.448 0.214s4.898-0.002 6.448-0.214c1.52-0.207 2.419-0.599 3.082-1.272 0.665-0.675 1.053-1.593 1.259-3.144 0.209-1.578 0.211-3.653 0.211-6.552s-0.002-4.974-0.211-6.552c-0.205-1.55-0.594-2.469-1.259-3.144-0.663-0.673-1.562-1.064-3.082-1.272-1.551-0.212-3.591-0.214-6.448-0.214-0.514 0-1.002 0-1.466 0.001v1.435c0 0.406-0.245 0.771-0.621 0.925s-0.807 0.066-1.092-0.224l-2.334-2.369c-0.383-0.389-0.383-1.014-0-1.404l2.334-2.369c0.285-0.289 0.716-0.377 1.092-0.224z"></path>
<path d="M21.374 13.374c0.391-0.39 0.391-1.024 0-1.414s-1.024-0.391-1.414 0l-5.96 5.96-1.96-1.96c-0.391-0.391-1.024-0.391-1.414 0s-0.391 1.024 0 1.414l2.667 2.667c0.391 0.391 1.024 0.391 1.414 0l6.667-6.667z"></path>
</symbol>
</defs>
</svg>

