<svg aria-hidden="true" style="position: absolute; width: 0; height: 0; overflow: hidden;" version="1.1" xmlns="http://www.w3.org/2000/svg" xmlns:xlink="http://www.w3.org/1999/xlink">
<defs>
<symbol id="icon-eye" viewBox="0 0 32 32">
<path d="M2.667 16c0-2.186 0.567-2.922 1.7-4.394 2.263-2.94 6.058-6.272 11.633-6.272s9.371 3.333 11.633 6.272c1.133 1.472 1.7 2.208 1.7 4.394s-0.567 2.922-1.7 4.394c-2.263 2.94-6.058 6.272-11.633 6.272s-9.371-3.333-11.633-6.272c-1.133-1.472-1.7-2.208-1.7-4.394zM16 11c-2.761 0-5 2.239-5 5s2.239 5 5 5c2.761 0 5-2.239 5-5s-2.239-5-5-5z"></path>
<path d="M13 16c0-1.657 1.343-3 3-3s3 1.343 3 3c0 1.657-1.343 3-3 3s-3-1.343-3-3z"></path>
</symbol>
<symbol id="icon-search" viewBox="0 0 32 32">
<path d="M29.051 29.051c0.376-0.376 0.376-0.987 0-1.363l-4.888-4.888c1.821-2.133 2.921-4.9 2.921-7.925 0-6.743-5.466-12.209-12.209-12.209s-12.209 5.466-12.209 12.209c0 6.743 5.466 12.209 12.209 12.209 3.024 0 5.792-1.1 7.925-2.921l4.888 4.888c0.377 0.376 0.987 0.376 1.363 0z"></path>
</symbol>
<symbol id="icon-arrow" viewBox="0 0 32 32">
<path stroke-linejoin="round" stroke-linecap="round" stroke-miterlimit="4" stroke-width="4" d="M25.333 12l-9.333 8-9.333-8"></path>
</symbol>
<symbol id="icon-arrow-up" viewBox="0 0 32 32">
<path stroke-linejoin="round" stroke-linecap="round" stroke-miterlimit="4" stroke-width="4" d="M25.333 20l-9.333-8-9.333 8"></path>
</symbol>
<symbol id="icon-off" viewBox="0 0 32 32">
<path stroke-linejoin="miter" stroke-linecap="round" stroke-miterlimit="4" stroke-width="2.6667" d="M8.457 8.457c-1.492 1.492-2.508 3.392-2.919 5.461s-0.2 4.214 0.607 6.163 2.175 3.615 3.929 4.787c1.754 1.172 3.816 1.798 5.926 1.798s4.172-0.626 5.926-1.798c1.754-1.172 3.121-2.838 3.929-4.787s1.019-4.094 0.607-6.163c-0.411-2.069-1.427-3.97-2.919-5.461M16 10.667v-5.333"></path>
</symbol>
<symbol id="icon-check" viewBox="0 0 30 32">
<path fill="#0fbb20" style="fill: var(--color1, #0fbb20)" d="M29.155 16c0-7.855-6.368-14.222-14.222-14.222s-14.222 6.367-14.222 14.222c0 7.855 6.367 14.222 14.222 14.222s14.222-6.368 14.222-14.222zM20.665 11.69c0.417 0.417 0.417 1.092 0 1.508l-7.111 7.111c-0.417 0.417-1.092 0.417-1.508 0l-2.844-2.844c-0.417-0.417-0.417-1.092 0-1.508s1.092-0.417 1.508 0l2.090 2.090 6.357-6.357c0.417-0.417 1.092-0.417 1.508 0z"></path>
</symbol>
<svg id="icon-danger" width="16" height="17" viewBox="0 0 16 17" fill="none" xmlns="http://www.w3.org/2000/svg">
<path fill-rule="evenodd" clip-rule="evenodd" d="M3.54106 7.67433C5.48663 4.22477 6.45942 2.5 7.99992 2.5C9.54038 2.5 10.5132 4.22477 12.4588 7.67433L12.7012 8.1042C14.318 10.9707 15.1264 12.404 14.3957 13.452C13.6651 14.5 11.8575 14.5 8.24238 14.5H7.75745C4.14229 14.5 2.3347 14.5 1.60409 13.452C0.873479 12.404 1.68186 10.9707 3.29862 8.1042L3.54106 7.67433ZM7.99992 5.33333C8.27605 5.33333 8.49992 5.55719 8.49992 5.83333V9.16667C8.49992 9.4428 8.27605 9.66667 7.99992 9.66667C7.72378 9.66667 7.49992 9.4428 7.49992 9.16667V5.83333C7.49992 5.55719 7.72378 5.33333 7.99992 5.33333ZM7.99992 11.8333C8.36812 11.8333 8.66658 11.5349 8.66658 11.1667C8.66658 10.7985 8.36812 10.5 7.99992 10.5C7.63172 10.5 7.33325 10.7985 7.33325 11.1667C7.33325 11.5349 7.63172 11.8333 7.99992 11.8333Z" fill="#DD1111"/>
</svg>

</defs>
</svg>

