<svg width="43" height="41" viewBox="0 0 43 41" fill="none" xmlns="http://www.w3.org/2000/svg">
<path fill-rule="evenodd" clip-rule="evenodd" d="M31.5 12C31.5 17.5228 27.0228 22 21.5 22C15.9771 22 11.5 17.5228 11.5 12C11.5 6.47715 15.9771 2 21.5 2C27.0228 2 31.5 6.47715 31.5 12ZM18.4696 8.96965C18.7625 8.67676 19.2374 8.67676 19.5303 8.96965L21.5 10.9393L23.4696 8.96967C23.7625 8.67678 24.2374 8.67678 24.5303 8.96967C24.8232 9.26256 24.8232 9.73744 24.5303 10.0303L22.5606 12L24.5303 13.9696C24.8232 14.2625 24.8232 14.7374 24.5303 15.0303C24.2374 15.3232 23.7625 15.3232 23.4696 15.0303L21.5 13.0607L19.5303 15.0303C19.2374 15.3232 18.7625 15.3232 18.4697 15.0303C18.1768 14.7374 18.1768 14.2625 18.4697 13.9697L20.4393 12L18.4696 10.0303C18.1767 9.73742 18.1767 9.26254 18.4696 8.96965Z" fill="#4B74E2"/>
</svg>
